<?xml version="1.0" encoding="UTF-8"?>
<svg id="Calque_9" xmlns="http://www.w3.org/2000/svg" version="1.1" viewBox="0 0 500 500">
  <!-- Generator: Adobe Illustrator 29.2.1, SVG Export Plug-In . SVG Version: 2.1.0 Build 116)  -->
  <defs>
    <style>
      .st0 {
        fill: #020202;
      }

      .st1 {
        fill: #61ba9a;
      }
    </style>
  </defs>
  <path class="st1" d="M453.1,257.1c-2.9,83.1-96.2,147.2-208.4,143.3-112.2-3.9-200.8-74.4-197.9-157.5,2.9-83.1,96.2-147.2,208.4-143.3,112.2,3.9,200.8,74.4,197.9,157.5h0Z"/>
  <path class="st0" d="M324.7,332.4c-22,15.8-45.2,23.9-66.4,27.6-41.1,7.2-74.5-1.8-76.6-2.4-9-2.5-14.3-11.9-11.7-20.9,2.5-9,11.8-14.2,20.8-11.7.8.2,63,16.6,114.1-20.1,7.6-5.4,18.2-3.7,23.6,3.9,5.4,7.6,3.7,18.2-3.9,23.6h0Z"/>
  <path class="st0" d="M215.6,171.2l-5.5,31-19.1,6.9,15.6,13.1-5.5,31c-2.1,12-13.6,20.1-25.6,18-12-2.1-20.1-13.6-18-25.6l14.5-82.1c2.1-12,13.6-20.1,25.6-18,6,1.1,11,4.5,14.3,9.1,3.2,4.6,4.7,10.5,3.7,16.5h0Z"/>
  <path class="st0" d="M322.6,272c-12.2,1.1-22.9-7.9-24-20.1l-7.3-83c-1.1-12.2,7.9-22.9,20.1-24,6.1-.5,11.8,1.4,16.1,5.1s7.3,8.9,7.8,15l2.8,31.4-16.7,11.7,18.4,8.6,2.8,31.4c1.1,12.2-7.9,22.9-20.1,24h0Z"/>
</svg>